<svg width="50" height="50" viewBox="0 0 50 50" fill="none" xmlns="http://www.w3.org/2000/svg">
<path d="M43.75 7H6.25C4.5924 7 3.00268 7.65848 1.83058 8.83058C0.658476 10.0027 0 11.5924 0 13.25V36.6875C0 38.3451 0.658476 39.9348 1.83058 41.1069C3.00268 42.279 4.5924 42.9375 6.25 42.9375H43.75C45.4076 42.9375 46.9973 42.279 48.1694 41.1069C49.3415 39.9348 50 38.3451 50 36.6875V13.25C50 11.5924 49.3415 10.0027 48.1694 8.83058C46.9973 7.65848 45.4076 7 43.75 7ZM46.875 36.6875C46.875 37.5163 46.5458 38.3112 45.9597 38.8972C45.3737 39.4833 44.5788 39.8125 43.75 39.8125H6.25C5.4212 39.8125 4.62634 39.4833 4.04029 38.8972C3.45424 38.3112 3.125 37.5163 3.125 36.6875V13.25C3.125 12.4212 3.45424 11.6263 4.04029 11.0403C4.62634 10.4542 5.4212 10.125 6.25 10.125H43.75C44.5788 10.125 45.3737 10.4542 45.9597 11.0403C46.5458 11.6263 46.875 12.4212 46.875 13.25V36.6875Z" fill="#2563EB"/>
<path d="M41.2032 15.1718L25.0001 28.4218L8.79693 15.1718C8.47413 14.9582 8.08352 14.872 7.7008 14.93C7.31808 14.9879 6.9705 15.1859 6.72539 15.4855C6.48027 15.785 6.35508 16.165 6.37408 16.5516C6.39307 16.9382 6.5549 17.304 6.82819 17.5781L24.0157 31.6406C24.2941 31.8664 24.6416 31.9897 25.0001 31.9897C25.3585 31.9897 25.7061 31.8664 25.9844 31.6406L43.1719 17.5781C43.3542 17.4575 43.5091 17.3001 43.6266 17.1159C43.7442 16.9317 43.8219 16.7249 43.8546 16.5089C43.8873 16.2929 43.8743 16.0724 43.8165 15.8617C43.7587 15.651 43.6574 15.4547 43.519 15.2856C43.3806 15.1165 43.2084 14.9783 43.0133 14.8799C42.8182 14.7815 42.6046 14.7251 42.3864 14.7144C42.1681 14.7037 41.9501 14.7389 41.7463 14.8177C41.5425 14.8965 41.3575 15.0171 41.2032 15.1718V15.1718Z" fill="#2563EB"/>
</svg>
