<svg width="50" height="50" viewBox="0 0 50 50" fill="none" xmlns="http://www.w3.org/2000/svg">
<path d="M43.75 7H6.25C4.5924 7 3.00268 7.65962 1.83058 8.83376C0.658476 10.0079 0 11.6004 0 13.2609V36.7391C0 38.3996 0.658476 39.9921 1.83058 41.1662C3.00268 42.3404 4.5924 43 6.25 43H43.75C45.4076 43 46.9973 42.3404 48.1694 41.1662C49.3415 39.9921 50 38.3996 50 36.7391V13.2609C50 11.6004 49.3415 10.0079 48.1694 8.83376C46.9973 7.65962 45.4076 7 43.75 7ZM43.1719 17.5965L25.9844 31.6835C25.706 31.9097 25.3585 32.0332 25 32.0332C24.6415 32.0332 24.294 31.9097 24.0156 31.6835L6.82813 17.5965C6.64591 17.4757 6.491 17.318 6.37342 17.1335C6.25583 16.949 6.17817 16.7419 6.14547 16.5255C6.11276 16.3091 6.12574 16.0882 6.18354 15.8771C6.24135 15.666 6.3427 15.4694 6.48106 15.3C6.61943 15.1306 6.79171 14.9922 6.98681 14.8936C7.1819 14.7951 7.39547 14.7386 7.61371 14.7279C7.83194 14.7171 8.05 14.7524 8.2538 14.8313C8.4576 14.9102 8.6426 15.0311 8.79687 15.1861L25 28.4591L41.2031 15.1861C41.5259 14.9721 41.9165 14.8858 42.2993 14.9438C42.682 15.0019 43.0296 15.2002 43.2747 15.5003C43.5198 15.8004 43.645 16.1809 43.626 16.5682C43.607 16.9555 43.4452 17.3219 43.1719 17.5965Z" fill="#2563EB"/>
</svg>
