<svg width="50" height="50" viewBox="0 0 50 50" fill="none" xmlns="http://www.w3.org/2000/svg">
<g clip-path="url(#clip0_3510_3)">
<path d="M25 5.32187C31.4125 5.32187 32.1719 5.35 34.6938 5.4625C37.0375 5.56562 38.3031 5.95938 39.1469 6.2875C40.2625 6.71875 41.0688 7.24375 41.9031 8.07812C42.7469 8.92188 43.2625 9.71875 43.6938 10.8344C44.0219 11.6781 44.4156 12.9531 44.5188 15.2875C44.6313 17.8187 44.6594 18.5781 44.6594 24.9813C44.6594 31.3938 44.6313 32.1531 44.5188 34.675C44.4156 37.0188 44.0219 38.2844 43.6938 39.1281C43.2625 40.2438 42.7375 41.05 41.9031 41.8844C41.0594 42.7281 40.2625 43.2438 39.1469 43.675C38.3031 44.0031 37.0281 44.3969 34.6938 44.5C32.1625 44.6125 31.4031 44.6406 25 44.6406C18.5875 44.6406 17.8281 44.6125 15.3063 44.5C12.9625 44.3969 11.6969 44.0031 10.8531 43.675C9.7375 43.2438 8.93125 42.7188 8.09688 41.8844C7.25313 41.0406 6.7375 40.2438 6.30625 39.1281C5.97813 38.2844 5.58438 37.0094 5.48125 34.675C5.36875 32.1438 5.34063 31.3844 5.34063 24.9813C5.34063 18.5688 5.36875 17.8094 5.48125 15.2875C5.58438 12.9437 5.97813 11.6781 6.30625 10.8344C6.7375 9.71875 7.2625 8.9125 8.09688 8.07812C8.94063 7.23438 9.7375 6.71875 10.8531 6.2875C11.6969 5.95938 12.9719 5.56562 15.3063 5.4625C17.8281 5.35 18.5875 5.32187 25 5.32187ZM25 1C18.4844 1 17.6688 1.02812 15.1094 1.14062C12.5594 1.25313 10.8063 1.66562 9.2875 2.25625C7.70313 2.875 6.3625 3.69062 5.03125 5.03125C3.69063 6.3625 2.875 7.70313 2.25625 9.27813C1.66562 10.8063 1.25313 12.55 1.14063 15.1C1.02813 17.6687 1 18.4844 1 25C1 31.5156 1.02813 32.3313 1.14063 34.8906C1.25313 37.4406 1.66562 39.1938 2.25625 40.7125C2.875 42.2969 3.69063 43.6375 5.03125 44.9688C6.3625 46.3 7.70313 47.125 9.27813 47.7344C10.8063 48.325 12.55 48.7375 15.1 48.85C17.6594 48.9625 18.475 48.9906 24.9906 48.9906C31.5063 48.9906 32.3219 48.9625 34.8813 48.85C37.4313 48.7375 39.1844 48.325 40.7031 47.7344C42.2781 47.125 43.6188 46.3 44.95 44.9688C46.2813 43.6375 47.1063 42.2969 47.7156 40.7219C48.3063 39.1938 48.7188 37.45 48.8313 34.9C48.9438 32.3406 48.9719 31.525 48.9719 25.0094C48.9719 18.4938 48.9438 17.6781 48.8313 15.1188C48.7188 12.5688 48.3063 10.8156 47.7156 9.29688C47.125 7.70312 46.3094 6.3625 44.9688 5.03125C43.6375 3.7 42.2969 2.875 40.7219 2.26562C39.1938 1.675 37.45 1.2625 34.9 1.15C32.3313 1.02813 31.5156 1 25 1Z" fill="#2563EB"/>
<path d="M25 12.6719C18.1938 12.6719 12.6719 18.1938 12.6719 25C12.6719 31.8062 18.1938 37.3281 25 37.3281C31.8062 37.3281 37.3281 31.8062 37.3281 25C37.3281 18.1938 31.8062 12.6719 25 12.6719ZM25 32.9969C20.5844 32.9969 17.0031 29.4156 17.0031 25C17.0031 20.5844 20.5844 17.0031 25 17.0031C29.4156 17.0031 32.9969 20.5844 32.9969 25C32.9969 29.4156 29.4156 32.9969 25 32.9969Z" fill="#2563EB"/>
<path d="M40.6937 12.1844C40.6937 13.7782 39.4 15.0625 37.8156 15.0625C36.2219 15.0625 34.9375 13.7688 34.9375 12.1844C34.9375 10.5907 36.2313 9.30627 37.8156 9.30627C39.4 9.30627 40.6937 10.6 40.6937 12.1844Z" fill="#2563EB"/>
</g>
<defs>
<clipPath id="clip0_3510_3">
<rect width="48" height="48" fill="white" transform="translate(1 1)"/>
</clipPath>
</defs>
</svg>
